<svg width="151" height="66" viewBox="0 0 151 66" fill="none" xmlns="http://www.w3.org/2000/svg">
<path d="M12.9718 12.179V53.3033H35.8195V12.179H12.9718ZM22.113 48.7322H17.5452V44.1652H22.113V48.7322ZM22.113 39.5947H17.5452V35.0267H22.113V39.5947ZM22.113 30.4559H17.5452V25.8882H22.113V30.4559ZM22.113 21.3178H17.5452V16.7494H22.113V21.3178ZM31.2515 48.7322H26.6807V44.1652H31.2515V48.7322ZM31.2515 39.5947H26.6807V35.0267H31.2515V39.5947ZM31.2515 30.4559H26.6807V25.8882H31.2515V30.4559ZM31.2515 21.3178H26.6807V16.7494H31.2515V21.3178Z" fill="#ffffff"/>
<path d="M56.3453 18.2893L56.5748 17.0975C56.4511 15.4441 55.3345 14.6192 53.2257 14.6192C52.0014 14.6192 50.9364 15.0533 50.0357 15.9267C49.1326 16.7979 48.6823 17.7149 48.6823 18.6801C48.6823 19.6427 49.0864 20.4838 49.8983 21.2043C50.7075 21.9217 51.6861 22.566 52.8353 23.1298C53.9808 23.6989 55.1296 24.3082 56.2754 24.9661C57.4243 25.624 58.4028 26.4732 59.2121 27.5142C60.024 28.5523 60.4284 29.7308 60.4284 31.0466C60.4284 33.7703 59.3577 35.911 57.2164 37.4696C55.0754 39.0312 52.7651 39.8109 50.2865 39.8109C47.8112 39.8109 45.7457 39.3595 44.0926 38.4568C42.4425 37.5564 41.6146 36.1867 41.6146 34.3507C41.6146 33.3712 41.9519 32.4838 42.6261 31.6888C43.2973 30.8932 44.2599 30.4968 45.5165 30.4968C46.0041 30.4968 46.4495 30.6345 46.8456 30.9095C47.2421 31.1843 47.4875 31.5511 47.5793 32.0095C47.5793 32.4682 47.3043 32.7 46.7545 32.7C45.7134 32.7 45.1958 33.1424 45.1958 34.0291C45.2251 35.0382 45.7051 35.9576 46.641 36.7821C47.571 37.608 48.8872 38.0231 50.5861 38.0231C52.2848 38.0231 53.7353 37.44 54.9463 36.2782C56.1544 35.1151 56.7584 33.7078 56.7584 32.0551C56.7584 30.9551 56.3453 29.9603 55.5178 29.0729C54.6929 28.1858 53.698 27.4278 52.5356 26.8025C51.3734 26.1742 50.203 25.5405 49.0245 24.8989C47.8491 24.2543 46.8456 23.4747 46.0207 22.558C45.1958 21.6383 44.7804 20.6003 44.7804 19.4378C44.7804 17.3886 45.6592 15.7518 47.4203 14.5278C49.1782 13.3034 51.1739 12.6914 53.4093 12.6914C54.9061 12.6914 56.2675 12.9988 57.4915 13.6084C58.7161 14.2231 59.3418 15.1538 59.3737 16.4074C59.3737 17.1434 59.1904 17.7558 58.8239 18.244C58.4544 18.735 57.9581 18.9775 57.3328 18.9775C56.7038 18.9768 56.3752 18.7476 56.3453 18.2893Z" fill="#ffffff"/>
<path d="M63.0438 35.3609L63.3185 30.2218C63.3185 26.9479 63.4718 25.1574 63.7768 24.8524C64.0842 24.5451 64.6263 24.0947 65.4053 23.4987C66.1876 22.9 66.7507 22.6033 67.1043 22.6033C67.4545 22.6033 67.6784 22.6658 67.7702 22.7866C67.8616 22.908 67.9082 23.1534 67.9082 23.5203C67.9082 24.8358 67.6168 26.1682 67.0344 27.5136C66.5758 30.3265 66.3469 32.6368 66.3469 34.4406C66.3469 36.248 66.5601 37.1487 66.9889 37.1487C67.7249 37.1487 68.5744 36.4988 69.537 35.1996C70.4999 33.8998 71.4864 31.9793 72.4976 29.4395C72.5272 28.7682 72.5571 28.0561 72.5894 27.3068C72.619 26.5567 72.6489 26.0069 72.6812 25.6537C72.7108 25.3031 72.7327 25.0523 72.7484 24.8987C72.7647 24.745 73.1851 24.3239 74.0106 23.6364C74.8355 22.9466 75.4718 22.6036 75.9138 22.6036C76.3592 22.6036 76.5804 23.1837 76.5804 24.3455C76.5804 24.6532 76.4962 25.2492 76.3266 26.136C76.1593 27.023 75.968 27.6676 75.7548 28.0641C75.5094 30.2347 75.3424 32.1329 75.2506 33.7534C78.2464 29.9597 79.8453 27.956 80.0452 27.7428C80.2421 27.5273 80.4194 27.4222 80.573 27.4222C80.8784 27.4222 81.032 27.5735 81.032 27.8808C81.032 28.0641 80.9695 28.2633 80.8488 28.4769C79.8666 29.9138 77.9418 32.4383 75.0643 36.0484C74.8814 39.6885 74.76 42.1672 74.6978 43.4833C74.5441 47.3669 74.002 50.0979 73.0693 51.6728C72.1357 53.2474 70.4776 54.035 68.0915 54.035C67.0507 54.035 66.0798 53.7224 65.1765 53.0961C64.2757 52.4681 63.8227 51.3811 63.8227 49.8368C63.8227 48.2909 64.4128 46.7083 65.5889 45.0875C66.767 43.4673 68.9163 40.9734 72.0366 37.6084L72.3116 32.6056C71.2732 34.9003 70.2484 36.6365 69.2373 37.8159C68.2288 38.9934 67.1126 39.5811 65.8882 39.5811C64.6642 39.5811 63.8853 39.2774 63.548 38.6648C63.2111 38.0514 63.0438 36.9521 63.0438 35.3609ZM71.8992 39.765C68.4128 43.5292 66.6679 46.5407 66.6679 48.8054C66.6679 49.8445 66.8512 50.701 67.221 51.3732C67.5876 52.0474 68.0921 52.3833 68.7334 52.3833C69.7126 52.3833 70.4001 51.8475 70.7993 50.7781C71.1957 49.7061 71.4868 47.5358 71.6704 44.2633L71.8992 39.765Z" fill="#ffffff"/>
<path d="M82.6824 36.8743L82.7287 38.2972C82.7287 39.1517 82.4829 39.5801 81.9949 39.5801C81.2615 39.5801 80.5584 39.481 79.8838 39.2814C79.2116 39.0845 78.8757 38.8098 78.8757 38.4565C78.8757 38.1063 78.9582 36.8979 79.1295 34.8324C79.2965 32.7669 79.3793 31.2133 79.3793 30.1752V27.4681C79.3793 25.9983 79.5329 25.1109 79.8383 24.8065C80.1456 24.4988 80.6871 24.0565 81.4667 23.4741C82.2484 22.8943 82.8121 22.603 83.1654 22.603C83.516 22.603 83.7398 22.6655 83.8309 22.7862C83.9227 22.9076 83.969 23.1368 83.969 23.4737C83.969 25.0972 83.662 26.6259 83.049 28.0634C82.8983 29.8053 82.8201 31.0157 82.8201 31.6876C82.9432 31.504 83.5858 30.4659 84.7479 28.5673C85.9104 26.6718 86.897 25.2802 87.7082 24.3904C88.5171 23.506 89.2458 23.0606 89.8871 23.0606C90.5297 23.0606 91.1038 23.2738 91.6074 23.7029C92.1123 24.1316 92.3657 24.6678 92.3657 25.3098C92.3657 26.6552 92.22 28.6372 91.929 31.2502C91.638 33.8655 91.494 35.5186 91.494 36.2064C91.494 36.8966 91.5858 37.2395 91.7694 37.2395C92.2872 37.2086 93.0073 36.5596 93.9274 35.2901C94.8434 34.0188 95.7514 32.3904 96.6554 30.403C97.5591 28.4133 98.1083 27.4208 98.3082 27.4208C98.5061 27.4208 98.6059 27.5422 98.6059 27.7877C98.6059 28.6425 98.1635 30.0042 97.2757 31.8698C94.857 37.009 92.8237 39.5788 91.171 39.5788C89.9783 39.5788 89.0755 39.334 88.4629 38.846C88.2497 38.6328 88.1419 38.072 88.1419 37.1713C88.1419 36.2673 88.2267 34.8015 88.3957 32.7652C88.5627 30.7323 88.6495 29.2086 88.6495 28.1998C88.6495 27.1887 88.4715 26.6844 88.121 26.6844C87.7677 26.6844 86.8427 27.7338 85.3437 29.8286C83.8436 31.9241 83.0486 33.2641 82.9565 33.8435C82.7742 34.9162 82.6824 35.9274 82.6824 36.8743Z" fill="#ffffff"/>
<path d="M109.206 39.5804C108.165 39.5804 107.353 39.3515 106.773 38.8929C106.528 38.6481 106.407 38.0065 106.407 36.9654C106.407 35.9273 106.452 34.5656 106.544 32.8826C105.718 35.0835 104.875 36.7522 104.02 37.8827C103.163 39.0146 102.085 39.5804 100.784 39.5804C99.4839 39.5804 98.3817 39.0146 97.4806 37.8827C96.5779 36.7525 96.1276 34.9461 96.1276 32.4678C96.1276 29.9922 96.823 27.8056 98.2144 25.9067C99.606 24.0112 101.434 23.0619 103.699 23.0619C104.799 23.0619 105.949 23.4907 107.139 24.3455C107.629 18.3811 108.073 15.0157 108.472 14.2527C108.655 13.9155 109.089 13.4249 109.781 12.7829C110.468 12.1413 111.043 11.82 111.501 11.82C111.959 11.82 112.188 12.5374 112.188 13.9773C112.188 15.6597 112.034 17.1132 111.73 18.3345C110.902 21.487 110.382 23.4903 110.168 24.3451C109.74 27.6513 109.527 31.5369 109.527 36.0018C109.527 36.8277 109.618 37.2408 109.802 37.2408C110.352 37.2099 111.088 36.5686 112.004 35.3123C112.921 34.058 113.833 32.4296 114.734 30.4259C115.637 28.4226 116.187 27.4221 116.387 27.4221C116.586 27.4221 116.686 27.5435 116.686 27.789C116.686 28.6438 116.241 30.0055 115.354 31.8711C112.938 37.0103 110.889 39.5804 109.206 39.5804ZM103.424 24.7153C102.597 24.7153 101.771 25.3732 100.945 26.6861C100.118 28.0025 99.7058 29.5259 99.7058 31.2515C99.7058 32.9824 99.9266 34.3956 100.371 35.4989C100.814 36.5985 101.375 37.149 102.046 37.149C103.424 37.149 104.999 34.396 106.772 28.8893C106.926 27.2069 107.003 26.2144 107.003 25.9071C106.116 25.1111 104.921 24.7153 103.424 24.7153Z" fill="#ffffff"/>
<path d="M117.236 39.5803C116.044 39.5803 115.141 39.3355 114.528 38.8476C114.315 38.6344 114.207 37.8691 114.207 36.5536C114.207 35.2368 114.307 33.0422 114.507 29.9682C114.704 26.8939 114.879 25.2358 115.033 24.9907C115.187 24.7452 115.661 24.2866 116.456 23.6127C117.252 22.9408 117.869 22.6039 118.314 22.6039C118.756 22.6039 118.98 23.184 118.98 24.3458C118.98 24.6534 118.893 25.2495 118.726 26.1362C118.559 27.0233 118.368 27.6679 118.152 28.0644C117.757 29.0725 117.557 31.7207 117.557 36.0024C117.557 36.8283 117.648 37.2414 117.831 37.2414C118.351 37.2105 119.072 36.5616 119.989 35.292C120.905 34.0208 121.816 32.3923 122.72 30.4049C123.621 28.4153 124.171 27.4227 124.371 27.4227C124.57 27.4227 124.669 27.5442 124.669 27.7896C124.669 28.6444 124.225 30.0061 123.337 31.8718C120.922 37.0103 118.889 39.5803 117.236 39.5803ZM115.907 16.9139C115.907 16.3614 116.195 15.8895 116.777 15.4903C117.357 15.0935 117.878 14.894 118.339 14.894C119.163 14.894 119.577 15.3686 119.577 16.3149C119.577 17.2641 119.331 18.0837 118.843 18.7715C118.352 19.459 117.665 19.8043 116.777 19.8043C116.195 19.8043 115.907 18.8394 115.907 16.9139Z" fill="#ffffff"/>
<path d="M130.449 28.2015L130.816 25.8613C130.816 25.524 130.707 25.2193 130.494 24.9439C130.282 24.6689 130.004 24.5285 129.67 24.5285C128.538 24.5285 127.559 25.378 126.733 27.077C125.906 28.7756 125.493 30.4044 125.493 31.9627C125.493 33.5243 125.814 34.7862 126.458 35.7481C127.1 36.714 127.887 37.1943 128.821 37.1943C129.753 37.1943 130.587 36.9811 131.32 36.553C132.056 36.1236 132.727 35.512 133.34 34.716C134.626 33.0337 135.726 31.1215 136.644 28.9805C136.888 28.4307 137.08 28.0342 137.218 27.7887C137.355 27.5433 137.509 27.4219 137.676 27.4219C137.843 27.4219 137.929 27.5433 137.929 27.7887C137.929 28.7969 137.576 30.0053 136.872 31.4129C136.168 32.8202 135.581 33.8995 135.106 34.6488C134.632 35.3989 134.028 36.1862 133.294 37.0104C131.765 38.7257 129.853 39.5805 127.559 39.5805C125.814 39.5805 124.49 38.9612 123.589 37.7232C122.686 36.4825 122.236 35.1611 122.236 33.7535C122.236 30.267 122.994 27.6138 124.506 25.7911C126.022 23.973 127.941 23.0617 130.266 23.0617C131.244 23.0617 132.016 23.3151 132.582 23.8194C133.148 24.3236 133.431 24.8984 133.431 25.5396C133.431 26.7314 133.218 27.6184 132.79 28.2009C132.362 28.7809 131.841 29.072 131.228 29.072C130.707 29.0726 130.449 28.7816 130.449 28.2015Z" fill="#ffffff"/>
<path d="M83.969 53.5201C82.9818 53.5201 82.1779 53.2168 81.5586 52.6098C80.9386 52.0068 80.6273 51.2002 80.6273 50.1917V50.0168C80.6273 49.3429 80.7596 48.7359 81.0191 48.204C81.2802 47.6702 81.653 47.2608 82.1293 46.973C82.6093 46.684 83.1568 46.5406 83.7694 46.5406C84.6914 46.5406 85.4135 46.8287 85.9457 47.4114C86.4739 47.9908 86.739 48.815 86.739 49.8787V50.6145H82.45C82.5095 51.0538 82.6855 51.4077 82.9762 51.6728C83.2682 51.9359 83.6397 52.0723 84.0874 52.0723C84.7806 52.0723 85.3194 51.8205 85.7112 51.3173L86.5946 52.3065C86.3255 52.6886 85.9593 52.9863 85.5 53.1975C85.039 53.4147 84.5301 53.5201 83.969 53.5201ZM83.7638 47.9888C83.4086 47.9888 83.1165 48.1096 82.8957 48.3537C82.6748 48.5922 82.5318 48.9378 82.4696 49.3888H84.9702V49.2448C84.9618 48.8453 84.8527 48.536 84.6485 48.3171C84.4406 48.1003 84.144 47.9888 83.7638 47.9888Z" fill="#ffffff"/>
<path d="M89.4131 46.6657L89.4697 47.4417C89.9497 46.8403 90.5943 46.5406 91.4032 46.5406C92.1183 46.5406 92.6465 46.7482 92.996 47.1689C93.3449 47.5877 93.5222 48.214 93.5299 49.0455V53.3958H91.7325V49.0818C91.7325 48.6976 91.652 48.4212 91.4846 48.2483C91.3193 48.075 91.042 47.9892 90.6571 47.9892C90.1516 47.9892 89.7714 48.204 89.5179 48.6381V53.3958H87.7202V46.666H89.4131V46.6657Z" fill="#ffffff"/>
<path d="M102.098 52.7098C101.652 53.2493 101.041 53.5204 100.256 53.5204C99.5358 53.5204 98.983 53.3112 98.6062 52.8961C98.226 52.4833 98.0311 51.8747 98.0234 51.0737V46.666H99.8219V51.0179C99.8219 51.719 100.14 52.0726 100.778 52.0726C101.388 52.0726 101.806 51.859 102.035 51.4346V46.666H103.84V53.3957H102.149L102.098 52.7098Z" fill="#ffffff"/>
<path d="M106.852 46.6657L106.908 47.4417C107.388 46.8403 108.033 46.5406 108.841 46.5406C109.556 46.5406 110.085 46.7482 110.436 47.1689C110.783 47.5877 110.962 48.214 110.969 49.0455V53.3958H109.171V49.0818C109.171 48.6976 109.089 48.4212 108.922 48.2483C108.759 48.075 108.48 47.9892 108.094 47.9892C107.591 47.9892 107.211 48.204 106.957 48.6381V53.3958H105.158V46.666H106.852V46.6657Z" fill="#ffffff"/>
<path d="M118.304 52.0722C118.636 52.0722 118.906 51.9801 119.113 51.7955C119.321 51.6129 119.428 51.3714 119.437 51.0678H121.122C121.119 51.5244 120.995 51.9415 120.749 52.3217C120.505 52.7022 120.17 52.9959 119.744 53.2071C119.321 53.4147 118.852 53.5201 118.336 53.5201C117.374 53.5201 116.616 53.2148 116.058 52.6021C115.503 51.9911 115.225 51.1463 115.225 50.0669V49.9492C115.225 48.9104 115.503 48.0862 116.053 47.4659C116.605 46.8476 117.361 46.5403 118.323 46.5403C119.164 46.5403 119.841 46.7777 120.348 47.2577C120.858 47.7367 121.113 48.3743 121.122 49.1695H119.437C119.428 48.822 119.321 48.5359 119.113 48.3171C118.906 48.1002 118.633 47.9888 118.293 47.9888C117.872 47.9888 117.557 48.1421 117.344 48.4478C117.131 48.7511 117.023 49.2487 117.023 49.9326V50.1192C117.023 50.8143 117.128 51.3116 117.341 51.6152C117.551 51.9186 117.872 52.0722 118.304 52.0722Z" fill="#ffffff"/>
<path d="M124.048 53.3954H122.243V43.8385H124.048V53.3954Z" fill="#ffffff"/>
<path d="M125.511 44.9234C125.511 44.6527 125.604 44.4298 125.784 44.2569C125.965 44.0823 126.21 43.9958 126.52 43.9958C126.828 43.9958 127.073 44.0823 127.253 44.2569C127.437 44.4298 127.529 44.6524 127.529 44.9234C127.529 45.1949 127.437 45.4187 127.251 45.5937C127.067 45.7669 126.822 45.8557 126.52 45.8557C126.218 45.8557 125.975 45.7666 125.789 45.5937C125.607 45.419 125.511 45.1952 125.511 44.9234ZM127.423 53.3954H125.62V46.6657H127.423V53.3954Z" fill="#ffffff"/>
<path d="M131.703 52.0722C132.035 52.0722 132.305 51.9801 132.512 51.7955C132.719 51.6129 132.827 51.3714 132.836 51.0678H134.521C134.518 51.5244 134.394 51.9415 134.149 52.3217C133.904 52.7022 133.57 52.9959 133.144 53.2071C132.72 53.4147 132.25 53.5201 131.736 53.5201C130.773 53.5201 130.016 53.2148 129.457 52.6021C128.901 51.9911 128.624 51.1463 128.624 50.0669V49.9492C128.624 48.9104 128.901 48.0862 129.452 47.4659C130.004 46.8476 130.76 46.5403 131.722 46.5403C132.563 46.5403 133.24 46.7777 133.747 47.2577C134.257 47.7367 134.513 48.3743 134.521 49.1695H132.836C132.828 48.822 132.719 48.5359 132.512 48.3171C132.305 48.1002 132.032 47.9888 131.692 47.9888C131.271 47.9888 130.956 48.1421 130.743 48.4478C130.53 48.7511 130.422 49.2487 130.422 49.9326V50.1192C130.422 50.8143 130.527 51.3116 130.74 51.6152C130.951 51.9186 131.271 52.0722 131.703 52.0722Z" fill="#ffffff"/>
</svg>
